<?xml version="1.0" standalone="no"?>
<!DOCTYPE svg PUBLIC "-//W3C//DTD SVG 20010904//EN"
 "http://www.w3.org/TR/2001/REC-SVG-20010904/DTD/svg10.dtd">
<svg version="1.0" xmlns="http://www.w3.org/2000/svg"
 width="1271.000000pt" height="1515.000000pt" viewBox="0 0 1271.000000 1515.000000"
 preserveAspectRatio="xMidYMid meet">

<g transform="translate(0.000000,1515.000000) scale(0.100000,-0.100000)"
fill="#ffffff" stroke="none">
<path d="M6510 15119 c-1468 -88 -2649 -518 -3770 -1373 -415 -316 -755 -609
-1078 -929 -468 -464 -784 -861 -1085 -1362 -256 -428 -498 -991 -543 -1264
-20 -123 -15 -322 11 -416 86 -310 363 -478 765 -462 79 3 160 12 195 22 160
45 317 148 416 273 72 89 117 169 179 315 116 275 288 585 503 907 517 776
1197 1415 1997 1880 1098 637 2358 930 3510 815 774 -77 1323 -246 2021 -620
277 -149 1011 -577 1017 -593 1 -4 -273 -268 -610 -587 -337 -319 -686 -650
-776 -735 -90 -85 -169 -156 -175 -158 -7 -1 -67 23 -132 54 -483 228 -1028
378 -1570 435 -143 14 -540 15 -680 0 -649 -69 -1252 -320 -1790 -745 -388
-307 -752 -727 -1031 -1191 -336 -559 -484 -1034 -513 -1650 -24 -484 48 -969
206 -1395 184 -496 631 -1117 1107 -1539 583 -516 1209 -804 1936 -893 158
-19 573 -16 745 6 499 63 965 211 1470 466 397 201 563 316 785 546 179 186
292 357 346 522 26 77 29 101 29 212 0 138 -14 192 -77 299 -70 118 -246 265
-426 355 -61 31 -88 38 -155 43 -99 7 -227 -9 -345 -43 -116 -33 -326 -138
-437 -220 -283 -207 -491 -310 -808 -399 -448 -126 -830 -137 -1247 -34 -319
79 -658 250 -882 444 -307 266 -531 731 -588 1220 -15 129 -15 402 0 530 37
318 156 661 307 889 254 381 737 729 1212 871 171 51 228 57 526 58 248 1 293
-1 395 -20 251 -47 439 -130 620 -273 201 -159 372 -286 460 -342 462 -297
761 -302 1138 -18 122 92 260 227 453 446 101 114 292 311 441 455 339 328
841 822 1183 1165 149 149 329 324 401 389 222 197 375 381 450 540 62 129 77
204 71 345 -4 98 -10 131 -40 222 -74 219 -146 325 -379 558 -372 372 -875
743 -1393 1027 -895 492 -2035 827 -3150 928 -389 35 -875 44 -1215 24z"/>
<path d="M728 5850 c-183 -33 -383 -143 -483 -267 -57 -70 -119 -196 -146
-298 -18 -64 -22 -111 -23 -235 -2 -233 13 -287 173 -642 352 -782 861 -1565
1318 -2024 383 -385 871 -787 1331 -1097 1075 -725 2200 -1129 3462 -1244 275
-25 972 -25 1250 0 801 73 1588 239 2177 458 936 349 1853 926 2514 1581 351
348 474 748 329 1074 -55 127 -191 282 -317 365 -244 159 -562 142 -878 -46
-51 -31 -150 -106 -226 -172 -938 -823 -1938 -1335 -3009 -1542 -337 -65 -586
-90 -955 -98 -1470 -30 -2752 433 -4000 1446 -157 127 -330 277 -444 386 -378
359 -843 1048 -1198 1775 -107 219 -152 288 -251 381 -144 136 -286 198 -472
204 -58 2 -126 0 -152 -5z"/>
</g>
</svg>
